<svg xmlns="http://www.w3.org/2000/svg" viewBox="0 0 279.381 111.36"><title>Wooster calligraphy</title><path d="M473.4,404.689q-2.655-1.824-2.655-1.826l-3.313-5.352a42.913,42.913,0,0,1-2.592,5.926,53.694,53.694,0,0,1-4.227,6.818,24.062,24.062,0,0,1-5.373,5.522,35.341,35.341,0,0,1-4.524,2.868,16.83,16.83,0,0,1-5.162,1.72,14.813,14.813,0,0,1-4.184-.233,10.086,10.086,0,0,1-3.845-1.849,11.774,11.774,0,0,1-4.333-6.924,32,32,0,0,1-.509-9.855,95.773,95.773,0,0,1,2.039-12.022q.933-3.822,1.869-7.6l1.274-5.268.34-1.359q1.317-5.479,2.464-11.045.467-2.548.807-5.161a31.671,31.671,0,0,0,.255-5.162,14.287,14.287,0,0,0-.722-3.441,6.84,6.84,0,0,0-1.827-2.761,1.278,1.278,0,0,1-.425-.3,2.448,2.448,0,0,0-.509-.383,8.244,8.244,0,0,0-3.463-1.04,19.185,19.185,0,0,0-3.717.063,59.453,59.453,0,0,0-13.721,3.951q-3.909,1.572-7.689,3.378a81.008,81.008,0,0,0-7.391,4.014,118.945,118.945,0,0,0-13.084,9.133q-2.423,2-4.716,4.185a40,40,0,0,0-4.2,4.693,33.18,33.18,0,0,0-1.954,3.08,9.638,9.638,0,0,0-1.147,3.335,2.992,2.992,0,0,0,.17,1.274,2,2,0,0,0,.764.935,18.211,18.211,0,0,0,3.738,1.572,24.74,24.74,0,0,0,4.079.764,15.7,15.7,0,0,0,2.336,0,2.071,2.071,0,0,1,2.1.766,2.31,2.31,0,0,1,.339,2.059,2.161,2.161,0,0,1-1.805,1.466,18.11,18.11,0,0,1-3.271.043,22.786,22.786,0,0,1-4.97-.978,20.46,20.46,0,0,1-4.758-1.954,6.485,6.485,0,0,1-3.016-4.588q-.042-.466-.042-.934v-.468a12.5,12.5,0,0,1,1.338-4.736,30.2,30.2,0,0,1,2.57-4.142,46.717,46.717,0,0,1,4.588-5.14q2.463-2.379,5.1-4.588a124.7,124.7,0,0,1,13.637-9.516q3.695-2.251,7.625-4.142t8.007-3.547a61.851,61.851,0,0,1,14.741-4.205,22.3,22.3,0,0,1,2.761-.17,16.023,16.023,0,0,1,3.569.319,12.437,12.437,0,0,1,3.441,1.253l1.019.637a1.619,1.619,0,0,0,.425.3,11.83,11.83,0,0,1,3.229,4.291,17.671,17.671,0,0,1,1.146,5.055,32.2,32.2,0,0,1-.191,5.841q-.361,2.91-.913,5.8-1.105,5.607-2.464,11.172l-.3,1.359q-.68,2.678-1.317,5.31-.935,3.781-1.827,7.562a82.476,82.476,0,0,0-2,11.428,26.966,26.966,0,0,0,.424,8.538,7.811,7.811,0,0,0,2.847,4.5,5.535,5.535,0,0,0,2.315,1.019,8.356,8.356,0,0,0,2.527.043,12.3,12.3,0,0,0,3.973-1.381,33.587,33.587,0,0,0,3.631-2.315,35.592,35.592,0,0,0,8.178-10.684q3.376-6.519,3.865-9.09t.532-2.741l-.085-1.316a32.487,32.487,0,0,1-.085-3.335,12.831,12.831,0,0,1,.552-3.378l.212-.382a4.718,4.718,0,0,1,.744-1.019,2.144,2.144,0,0,1,1.508-.51,2.047,2.047,0,0,1,2.081,1.126,6.68,6.68,0,0,1,.595,2.272,24.89,24.89,0,0,1-1.1,6.839,26.208,26.208,0,0,0,1.529,5.311,14.508,14.508,0,0,0,3.1,4.736q1.614,1.467,2.74,1.232A10.19,10.19,0,0,0,480.664,399a25.547,25.547,0,0,0,4.949-6.436,41.288,41.288,0,0,0,3.781-8.39,26.364,26.364,0,0,1-1.444-6.839,47.577,47.577,0,0,1,.255-11.343,51.537,51.537,0,0,1,1.062-5.48,40.538,40.538,0,0,1,1.741-5.352l.085-.17a21.958,21.958,0,0,1,1.657-2.953,4.851,4.851,0,0,1,2.719-2.06,2.861,2.861,0,0,1,2.846.637,4.448,4.448,0,0,1,1.657,2.549,26,26,0,0,1,.361,5.48,42.268,42.268,0,0,1-1.466,9.686,152.878,152.878,0,0,1-4.5,14.91,5.025,5.025,0,0,0-.3.935,7.723,7.723,0,0,0,.425.976,11.854,11.854,0,0,0,4.375,4.631,12.014,12.014,0,0,0,2.931,1.168,14.976,14.976,0,0,0,3.569.425,10.639,10.639,0,0,0,4.014-.765q2.018-.785,2.783.192a2.014,2.014,0,0,1,.424,1.975,2.97,2.97,0,0,1-1.295,1.593,7.867,7.867,0,0,1-3,.871,26.765,26.765,0,0,1-3.908.255,18.4,18.4,0,0,1-3.909-.489,14.955,14.955,0,0,1-3.95-1.529,19.783,19.783,0,0,1-3.4-2.761,14.737,14.737,0,0,1-1.147-1.275,47.756,47.756,0,0,1-3.631,6.819,48.718,48.718,0,0,1-3.973,5.119,14.677,14.677,0,0,1-5.288,3.844A5.59,5.59,0,0,1,473.4,404.689Zm22.579-49.659a6.3,6.3,0,0,0-.468.786q-.128.276-.34.659a2.371,2.371,0,0,0-.212.467,28.719,28.719,0,0,0-1.529,4.779q-.552,2.444-.935,4.949a42.986,42.986,0,0,0-.34,9.643q1.106-3.228,2.464-9.006A38.245,38.245,0,0,0,496,358.535Q496.021,355.115,495.979,355.03Z" transform="translate(-372.828 -341.56)" style="fill:#ccc"/><path d="M513.99,384.342a4.212,4.212,0,0,1,2.889.467,6.1,6.1,0,0,1,2.464,3.654,10.055,10.055,0,0,1,.3,2.506,21.626,21.626,0,0,0,2.337.17,33.324,33.324,0,0,0,6.881-.637q2.168-.425,4.333-.978a4.862,4.862,0,0,1,.595-.128,2.27,2.27,0,0,1,2.337.66,2.379,2.379,0,0,1,.531,2.166,2.251,2.251,0,0,1-1.806,1.635,3.168,3.168,0,0,1-.51.127q-2.293.6-4.63,1.063a35.506,35.506,0,0,1-7.944.723,22.33,22.33,0,0,1-2.719-.213,12.071,12.071,0,0,1-.637,2.294,19.865,19.865,0,0,1-2.676,4.927,18.376,18.376,0,0,1-1.869,2.081,10.973,10.973,0,0,1-2.337,1.7,7.6,7.6,0,0,1-2.676.679,4.4,4.4,0,0,1-2.719-.806,5.089,5.089,0,0,1-1.784-4.333,11.916,11.916,0,0,1,.977-3.824,21.894,21.894,0,0,1,1.954-3.568q.934-1.57,2-3.059a5.309,5.309,0,0,1,.6-.806,3.874,3.874,0,0,1-.255-2.847,5.526,5.526,0,0,1,2.718-3.143A6.53,6.53,0,0,1,513.99,384.342Zm-.722,9.642-.255.34q-.935,1.36-1.826,2.805a20.509,20.509,0,0,0-1.53,2.782,9.808,9.808,0,0,0-.743,2.209q-.149.872.977.085a9.727,9.727,0,0,0,2.23-2.315,14.9,14.9,0,0,0,1.954-3.7,9.075,9.075,0,0,0,.467-1.656A8.109,8.109,0,0,1,513.268,393.984Zm1.466-4.863q-.4-1.254-.956-1.1t.4,1.253Q515.138,390.374,514.734,389.121Z" transform="translate(-372.828 -341.56)" style="fill:#ccc"/><path d="M537.907,384.342a4.21,4.21,0,0,1,2.888.467,6.093,6.093,0,0,1,2.464,3.654,10.064,10.064,0,0,1,.3,2.506,21.584,21.584,0,0,0,2.336.17,33.334,33.334,0,0,0,6.882-.637q2.166-.425,4.333-.978a4.822,4.822,0,0,1,.6-.128,2.268,2.268,0,0,1,2.336.66,2.374,2.374,0,0,1,.531,2.166,2.25,2.25,0,0,1-1.805,1.635,3.168,3.168,0,0,1-.51.127q-2.293.6-4.63,1.063a35.511,35.511,0,0,1-7.944.723,22.3,22.3,0,0,1-2.719-.213,12.071,12.071,0,0,1-.637,2.294,19.836,19.836,0,0,1-2.677,4.927,18.186,18.186,0,0,1-1.869,2.081,10.966,10.966,0,0,1-2.336,1.7,7.613,7.613,0,0,1-2.676.679,4.4,4.4,0,0,1-2.719-.806,5.089,5.089,0,0,1-1.784-4.333,11.89,11.89,0,0,1,.977-3.824,21.818,21.818,0,0,1,1.954-3.568q.934-1.57,2-3.059a5.379,5.379,0,0,1,.595-.806,3.874,3.874,0,0,1-.255-2.847,5.524,5.524,0,0,1,2.719-3.143A6.518,6.518,0,0,1,537.907,384.342Zm-.722,9.642-.255.34q-.934,1.36-1.827,2.805a20.5,20.5,0,0,0-1.529,2.782,9.819,9.819,0,0,0-.744,2.209q-.149.872.978.085a9.746,9.746,0,0,0,2.23-2.315,14.9,14.9,0,0,0,1.954-3.7,9.075,9.075,0,0,0,.467-1.656A8.029,8.029,0,0,1,537.185,393.984Zm1.465-4.863q-.4-1.254-.956-1.1t.4,1.253Q539.054,390.374,538.65,389.121Z" transform="translate(-372.828 -341.56)" style="fill:#ccc"/><path d="M576.967,393.2q1.806-1.04,3.824-2.23t3.037-.871a1.579,1.579,0,0,1,1.041,1.7q.021,1.381-1.89,2.655t-3.866,2.4q-1.955,1.126-3.781,2.272a41.794,41.794,0,0,0-4.928,3.483,11.638,11.638,0,0,1,.383,2.167,13.77,13.77,0,0,1-.51,4.588,16.5,16.5,0,0,1-2.167,4.29,20.009,20.009,0,0,1-3.483,3.611,20.733,20.733,0,0,1-3.951,2.337,5.968,5.968,0,0,1-4.418.085,4.42,4.42,0,0,1-1.7-1.551,5.274,5.274,0,0,1-.68-4.524,10.492,10.492,0,0,1,.85-2.209,21.513,21.513,0,0,1,3.1-4.376,45.022,45.022,0,0,1,4.545-4.12q1.444-1.147,2.507-1.912a7.268,7.268,0,0,0-.68-1.1,14.221,14.221,0,0,0-1.869-2.209q-1.02-.978-2.124-1.869a13.463,13.463,0,0,1-2.124-2.082,5.073,5.073,0,0,1-1.02-3.484,6.576,6.576,0,0,1,1.232-2.931,8.414,8.414,0,0,1,2.337-1.784,6.065,6.065,0,0,1,1.911-.446,3.171,3.171,0,0,1,1.955.573,3.214,3.214,0,0,1,.807,4.036,6.848,6.848,0,0,1-2.337,2.421q1.444,1.19,2.549,2.3a25.357,25.357,0,0,1,2.421,2.8q.552.85.723,1.1,2.208-1.488,4.5-2.888Q575.162,394.241,576.967,393.2Zm-10.683,12.426-1.02.807a41.164,41.164,0,0,0-4.035,3.695,16.619,16.619,0,0,0-2.422,3.314,4.07,4.07,0,0,0-.552,1.87q0,.254.6.042a11.429,11.429,0,0,0,2.888-1.658,15.2,15.2,0,0,0,2.592-2.632,12.651,12.651,0,0,0,1.529-2.932A9.091,9.091,0,0,0,566.284,405.625Z" transform="translate(-372.828 -341.56)" style="fill:#ccc"/><path d="M604.75,392.2q-.573,1.741-.574,1.741l-1.317-.212a54.58,54.58,0,0,0-6.329-.212,53.271,53.271,0,0,0-9.473.806q-.3,9.772-.468,20.051-.128,3.018-.17,6.075-.253,9.729-.467,19.5-.213,4.334-.3,10.662a2.34,2.34,0,0,1-1.317,2.082,2.4,2.4,0,0,1-2.273-.128,2.288,2.288,0,0,1-1.083-2.251q.128-6.246.255-10.493.213-9.813.467-19.583l.213-5.947q.169-9.855.3-19.287l-2.931.468q-3.782.425-4.418-.192a2.8,2.8,0,0,1-.552-2.209q.086-1.592,2.124-1.954t3.653-.573q.723-1.827,1.614-4.63.51-1.954,1.02-3.866l-.043-.425q.213-5.012.425-10.025t.722-10.068a6.088,6.088,0,0,1,.085-.892q.086-1.233.3-2.677a6.267,6.267,0,0,1,.723-2.294q1.188-1.869,2.548-1.911,1.658-.042,2.592,2.421a34.789,34.789,0,0,1,.233,6.075q-.149,3.058-.488,6.032a2.417,2.417,0,0,0-.043.467q-.934,7.01-2.421,13.807a.876.876,0,0,1,0,.382q0,.935-.085,1.869-.042,2.038-.127,4.121v.636q13.338-1.273,16.907-.042A2.167,2.167,0,0,1,604.75,392.2Z" transform="translate(-372.828 -341.56)" style="fill:#ccc"/><path d="M613.9,401.5a14.933,14.933,0,0,1-6.032-.893,9.528,9.528,0,0,1-4.991-3.568,9.248,9.248,0,0,1-1.614-5.182,11.941,11.941,0,0,1,.615-4.4,11.6,11.6,0,0,1,1.36-2.57,8.745,8.745,0,0,1,3.1-2.676,5.409,5.409,0,0,1,3.738-.51,3.281,3.281,0,0,1,2.527,1.891,4.093,4.093,0,0,1-.191,3.313,12.111,12.111,0,0,1-2.188,3.356,25.524,25.524,0,0,1-4.4,3.546,3.126,3.126,0,0,0,.531.83,11.348,11.348,0,0,0,1.7,1.465,8.386,8.386,0,0,0,3.5,1.4,9.969,9.969,0,0,0,3.122.106,14.931,14.931,0,0,0,3.377-.828,28.9,28.9,0,0,0,5.035-2.358,24.864,24.864,0,0,0,4.078-3q1.761-1.615,2.549.3t-1.53,3.824a25.253,25.253,0,0,1-5.012,3.228,35.016,35.016,0,0,1-4.567,1.912A21.022,21.022,0,0,1,613.9,401.5Zm-8.029-12.744a12.165,12.165,0,0,0,2.613-2.867c.014-.071-.134-.029-.446.127a4.854,4.854,0,0,0-1.274,1.21A3.735,3.735,0,0,0,605.875,388.76Z" transform="translate(-372.828 -341.56)" style="fill:#ccc"/><path d="M628.6,386a2.378,2.378,0,0,1,1.423.553,2.17,2.17,0,0,1,.7,1.572q.084,1.359.212,2.719.128,1.91.255,3.865.17,3.144.3,6.244.213-1.188.467-2.379a28.328,28.328,0,0,1,2.167-5.9,16.1,16.1,0,0,1,2.974-4.121,6,6,0,0,1,1.741-1.1,3.957,3.957,0,0,1,2-.255,3.285,3.285,0,0,1,.552.127c.085.029.184.058.3.085a5.621,5.621,0,0,1,1.4.893,15.066,15.066,0,0,1,1.19,1.146c.056.057.113.114.17.17a2.45,2.45,0,0,0,1.529.85,7.341,7.341,0,0,0,1.487-.233q.721-.192,1.444-.447c.113-.027.227-.056.34-.085a2.162,2.162,0,0,1,2.294.4,2.2,2.2,0,0,1,.637,1.954,2.281,2.281,0,0,1-1.572,1.72q-1.317.426-2.654.744a7.724,7.724,0,0,1-2.741.148,6.672,6.672,0,0,1-3.823-2.039,4.888,4.888,0,0,1-.382-.424,8.63,8.63,0,0,1-.722-.722.649.649,0,0,0-.17.126,11.6,11.6,0,0,0-2.124,2.932,23.566,23.566,0,0,0-1.827,5.013,57.981,57.981,0,0,0-1.1,6.287A48.135,48.135,0,0,1,634,411.869a14.787,14.787,0,0,1-.765,2.082,2.938,2.938,0,0,1-1.444,1.571,3.35,3.35,0,0,1-1.062.17,1.506,1.506,0,0,1-.51,0,2.2,2.2,0,0,1-.467-.128,4.348,4.348,0,0,1-.808-.423,2.555,2.555,0,0,1-.87-1.318,9.326,9.326,0,0,1-.319-1.614,5.378,5.378,0,0,0-.128-.723q-.254-3.44-.339-6.839v-.3q-.127-4.674-.383-9.388-.128-1.869-.255-3.78-.084-1.361-.212-2.719a2.305,2.305,0,0,1,.616-1.827A2.157,2.157,0,0,1,628.6,386Z" transform="translate(-372.828 -341.56)" style="fill:#ccc"/></svg>